<mxfile host="app.diagrams.net" modified="2021-03-11T18:29:21.524Z" agent="5.0 (Windows NT 10.0; Win64; x64) AppleWebKit/537.36 (KHTML, like Gecko) Chrome/88.0.4324.190 Safari/537.36" etag="Rz05lA0Pi7xB4bC9jiZQ" version="14.4.7" type="github" pages="3">
  <diagram name="Page-1" id="13e1069c-82ec-6db2-03f1-153e76fe0fe0">
    <mxGraphModel dx="1422" dy="762" grid="1" gridSize="10" guides="1" tooltips="1" connect="1" arrows="1" fold="1" page="1" pageScale="1" pageWidth="1100" pageHeight="850" background="#ffffff" math="0" shadow="0">
      <root>
        <mxCell id="0" />
        <mxCell id="1" parent="0" />
        <mxCell id="FDuW5T6w23psz0ph_W9L-1" value="Teleport működése" style="shape=umlFrame;whiteSpace=wrap;html=1;width=90;height=40;" parent="1" vertex="1">
          <mxGeometry x="140" y="20" width="770" height="400" as="geometry" />
        </mxCell>
        <mxCell id="xq6RAXwcccBxe6sGR83r-1" value="h: Hajo" style="shape=umlLifeline;perimeter=lifelinePerimeter;whiteSpace=wrap;html=1;container=1;collapsible=0;recursiveResize=0;outlineConnect=0;" parent="1" vertex="1">
          <mxGeometry x="795" y="45" width="100" height="355" as="geometry" />
        </mxCell>
        <mxCell id="xq6RAXwcccBxe6sGR83r-2" value="t: Teleportkapu" style="shape=umlLifeline;perimeter=lifelinePerimeter;whiteSpace=wrap;html=1;container=1;collapsible=0;recursiveResize=0;outlineConnect=0;" parent="1" vertex="1">
          <mxGeometry x="280" y="40" width="100" height="370" as="geometry" />
        </mxCell>
        <mxCell id="xq6RAXwcccBxe6sGR83r-14" value="" style="html=1;points=[];perimeter=orthogonalPerimeter;" parent="xq6RAXwcccBxe6sGR83r-2" vertex="1">
          <mxGeometry x="45" y="100" width="10" height="210" as="geometry" />
        </mxCell>
        <mxCell id="xq6RAXwcccBxe6sGR83r-15" value="1 : HajoErkezik(h : Hajo)" style="html=1;verticalAlign=bottom;endArrow=block;entryX=0;entryY=0;" parent="1" target="xq6RAXwcccBxe6sGR83r-14" edge="1">
          <mxGeometry x="0.1892" y="10" relative="1" as="geometry">
            <mxPoint x="140" y="140" as="sourcePoint" />
            <Array as="points">
              <mxPoint x="190" y="140" />
            </Array>
            <mxPoint as="offset" />
          </mxGeometry>
        </mxCell>
        <mxCell id="xq6RAXwcccBxe6sGR83r-17" value="par: Teleportkapu" style="shape=umlLifeline;perimeter=lifelinePerimeter;whiteSpace=wrap;html=1;container=1;collapsible=0;recursiveResize=0;outlineConnect=0;" parent="1" vertex="1">
          <mxGeometry x="450" y="40" width="100" height="360" as="geometry" />
        </mxCell>
        <mxCell id="xq6RAXwcccBxe6sGR83r-18" value="" style="html=1;points=[];perimeter=orthogonalPerimeter;" parent="xq6RAXwcccBxe6sGR83r-17" vertex="1">
          <mxGeometry x="45" y="120" width="10" height="180" as="geometry" />
        </mxCell>
        <mxCell id="xq6RAXwcccBxe6sGR83r-19" value="a : Aszteroida" style="shape=umlLifeline;perimeter=lifelinePerimeter;whiteSpace=wrap;html=1;container=1;collapsible=0;recursiveResize=0;outlineConnect=0;" parent="1" vertex="1">
          <mxGeometry x="630" y="40" width="100" height="360" as="geometry" />
        </mxCell>
        <mxCell id="xq6RAXwcccBxe6sGR83r-20" value="" style="html=1;points=[];perimeter=orthogonalPerimeter;" parent="xq6RAXwcccBxe6sGR83r-19" vertex="1">
          <mxGeometry x="45" y="140" width="10" height="150" as="geometry" />
        </mxCell>
        <mxCell id="xq6RAXwcccBxe6sGR83r-21" value="2 : HajoTeleportErkezik(h: Hajo)" style="html=1;verticalAlign=bottom;endArrow=block;" parent="1" target="xq6RAXwcccBxe6sGR83r-18" edge="1">
          <mxGeometry width="80" relative="1" as="geometry">
            <mxPoint x="340" y="160" as="sourcePoint" />
            <mxPoint x="470" y="203" as="targetPoint" />
            <Array as="points">
              <mxPoint x="410" y="160" />
            </Array>
          </mxGeometry>
        </mxCell>
        <mxCell id="xq6RAXwcccBxe6sGR83r-22" value="3 : HajoErkezik(h: Hajo)" style="html=1;verticalAlign=bottom;endArrow=block;entryX=0.31;entryY=0.002;entryDx=0;entryDy=0;entryPerimeter=0;exitX=1.069;exitY=0.109;exitDx=0;exitDy=0;exitPerimeter=0;" parent="1" source="xq6RAXwcccBxe6sGR83r-18" target="xq6RAXwcccBxe6sGR83r-20" edge="1">
          <mxGeometry width="80" relative="1" as="geometry">
            <mxPoint x="490" y="180" as="sourcePoint" />
            <mxPoint x="670" y="180" as="targetPoint" />
          </mxGeometry>
        </mxCell>
        <mxCell id="xq6RAXwcccBxe6sGR83r-26" value="" style="html=1;verticalAlign=bottom;endArrow=open;dashed=1;endSize=8;" parent="1" source="xq6RAXwcccBxe6sGR83r-12" target="xq6RAXwcccBxe6sGR83r-20" edge="1">
          <mxGeometry relative="1" as="geometry">
            <mxPoint x="260" y="290" as="sourcePoint" />
            <mxPoint x="180" y="290" as="targetPoint" />
            <Array as="points">
              <mxPoint x="750" y="270" />
            </Array>
          </mxGeometry>
        </mxCell>
        <mxCell id="xq6RAXwcccBxe6sGR83r-27" value="" style="html=1;verticalAlign=bottom;endArrow=open;dashed=1;endSize=8;entryX=1;entryY=0.941;entryDx=0;entryDy=0;entryPerimeter=0;" parent="1" source="xq6RAXwcccBxe6sGR83r-20" target="xq6RAXwcccBxe6sGR83r-18" edge="1">
          <mxGeometry relative="1" as="geometry">
            <mxPoint x="260" y="160" as="sourcePoint" />
            <mxPoint x="490" y="330" as="targetPoint" />
          </mxGeometry>
        </mxCell>
        <mxCell id="xq6RAXwcccBxe6sGR83r-28" value="" style="html=1;verticalAlign=bottom;endArrow=open;dashed=1;endSize=8;exitX=-0.3;exitY=0.989;exitDx=0;exitDy=0;exitPerimeter=0;" parent="1" source="xq6RAXwcccBxe6sGR83r-18" target="xq6RAXwcccBxe6sGR83r-14" edge="1">
          <mxGeometry relative="1" as="geometry">
            <mxPoint x="260" y="160" as="sourcePoint" />
            <mxPoint x="180" y="160" as="targetPoint" />
          </mxGeometry>
        </mxCell>
        <mxCell id="xq6RAXwcccBxe6sGR83r-29" value="" style="html=1;verticalAlign=bottom;endArrow=open;dashed=1;endSize=8;exitX=-0.19;exitY=0.998;exitDx=0;exitDy=0;exitPerimeter=0;" parent="1" source="xq6RAXwcccBxe6sGR83r-14" edge="1">
          <mxGeometry relative="1" as="geometry">
            <mxPoint x="240" y="220" as="sourcePoint" />
            <mxPoint x="140" y="350" as="targetPoint" />
          </mxGeometry>
        </mxCell>
        <mxCell id="xq6RAXwcccBxe6sGR83r-32" value="6 : MezoBeallit(a: Mezo)" style="html=1;verticalAlign=bottom;endArrow=block;" parent="1" source="xq6RAXwcccBxe6sGR83r-20" target="xq6RAXwcccBxe6sGR83r-1" edge="1">
          <mxGeometry width="80" relative="1" as="geometry">
            <mxPoint x="660" y="240" as="sourcePoint" />
            <mxPoint x="155" y="240" as="targetPoint" />
            <Array as="points">
              <mxPoint x="750" y="240" />
            </Array>
          </mxGeometry>
        </mxCell>
        <mxCell id="xq6RAXwcccBxe6sGR83r-12" value="" style="html=1;points=[];perimeter=orthogonalPerimeter;" parent="1" vertex="1">
          <mxGeometry x="840" y="240" width="10" height="30" as="geometry" />
        </mxCell>
      </root>
    </mxGraphModel>
  </diagram>
  <diagram id="eOElBsU3ixKA3WqPtz8O" name="komm. diag">
    <mxGraphModel dx="1422" dy="762" grid="1" gridSize="10" guides="1" tooltips="1" connect="1" arrows="1" fold="1" page="1" pageScale="1" pageWidth="1654" pageHeight="1169" math="0" shadow="0">
      <root>
        <mxCell id="nh1I7vMnc_5VSL2TyZD0-0" />
        <mxCell id="nh1I7vMnc_5VSL2TyZD0-1" parent="nh1I7vMnc_5VSL2TyZD0-0" />
        <mxCell id="nh1I7vMnc_5VSL2TyZD0-2" value="Telepes mozog teleportkapun keresztül" style="shape=umlFrame;whiteSpace=wrap;html=1;width=180;height=30;" vertex="1" parent="nh1I7vMnc_5VSL2TyZD0-1">
          <mxGeometry x="20" y="50" width="710" height="450" as="geometry" />
        </mxCell>
        <mxCell id="nh1I7vMnc_5VSL2TyZD0-3" value="t: Telepes" style="html=1;" vertex="1" parent="nh1I7vMnc_5VSL2TyZD0-1">
          <mxGeometry x="470" y="220" width="90" height="40" as="geometry" />
        </mxCell>
        <mxCell id="nh1I7vMnc_5VSL2TyZD0-4" value="a: Aszteroida" style="html=1;" vertex="1" parent="nh1I7vMnc_5VSL2TyZD0-1">
          <mxGeometry x="420" y="70" width="90" height="40" as="geometry" />
        </mxCell>
        <mxCell id="nh1I7vMnc_5VSL2TyZD0-5" value="tp: Teleportkapu" style="html=1;" vertex="1" parent="nh1I7vMnc_5VSL2TyZD0-1">
          <mxGeometry x="550" y="340" width="110" height="40" as="geometry" />
        </mxCell>
        <mxCell id="nh1I7vMnc_5VSL2TyZD0-6" value="Controller" style="html=1;" vertex="1" parent="nh1I7vMnc_5VSL2TyZD0-1">
          <mxGeometry x="70" y="220" width="90" height="40" as="geometry" />
        </mxCell>
        <mxCell id="nh1I7vMnc_5VSL2TyZD0-7" value="3. &amp;lt;&amp;lt;create&amp;gt;&amp;gt; Telepes(a)" style="html=1;verticalAlign=bottom;endArrow=none;exitX=1;exitY=0.5;exitDx=0;exitDy=0;entryX=0;entryY=0.5;entryDx=0;entryDy=0;endFill=0;" edge="1" parent="nh1I7vMnc_5VSL2TyZD0-1" source="nh1I7vMnc_5VSL2TyZD0-6" target="nh1I7vMnc_5VSL2TyZD0-3">
          <mxGeometry x="0.2225" y="16" width="80" relative="1" as="geometry">
            <mxPoint x="530" y="230" as="sourcePoint" />
            <mxPoint x="610" y="230" as="targetPoint" />
            <mxPoint as="offset" />
          </mxGeometry>
        </mxCell>
        <mxCell id="nh1I7vMnc_5VSL2TyZD0-8" value="" style="html=1;verticalAlign=bottom;endArrow=none;exitX=1;exitY=0;exitDx=0;exitDy=0;entryX=0;entryY=0.5;entryDx=0;entryDy=0;endFill=0;" edge="1" parent="nh1I7vMnc_5VSL2TyZD0-1" source="nh1I7vMnc_5VSL2TyZD0-6" target="nh1I7vMnc_5VSL2TyZD0-4">
          <mxGeometry x="0.1692" y="-40" width="80" relative="1" as="geometry">
            <mxPoint x="170" y="230" as="sourcePoint" />
            <mxPoint x="400" y="130" as="targetPoint" />
            <mxPoint as="offset" />
          </mxGeometry>
        </mxCell>
        <mxCell id="nh1I7vMnc_5VSL2TyZD0-9" value="4. &amp;lt;&amp;lt;create&amp;gt;&amp;gt; Teleporlkapu()" style="html=1;verticalAlign=bottom;endArrow=none;entryX=0;entryY=0.5;entryDx=0;entryDy=0;endFill=0;" edge="1" parent="nh1I7vMnc_5VSL2TyZD0-1" target="nh1I7vMnc_5VSL2TyZD0-5">
          <mxGeometry x="-0.013" y="30" width="80" relative="1" as="geometry">
            <mxPoint x="160" y="250" as="sourcePoint" />
            <mxPoint x="500" y="250" as="targetPoint" />
            <mxPoint as="offset" />
          </mxGeometry>
        </mxCell>
        <mxCell id="nh1I7vMnc_5VSL2TyZD0-13" value="1. &amp;lt;&amp;lt;create&amp;gt;&amp;gt; Aszteroida()" style="html=1;verticalAlign=bottom;endArrow=block;" edge="1" parent="nh1I7vMnc_5VSL2TyZD0-1">
          <mxGeometry x="-0.616" y="18" width="80" relative="1" as="geometry">
            <mxPoint x="190" y="189.5" as="sourcePoint" />
            <mxPoint x="230" y="170" as="targetPoint" />
            <mxPoint y="1" as="offset" />
          </mxGeometry>
        </mxCell>
        <mxCell id="7wD32De6sUAgyROnqUvv-0" value="a2: Aszteroida" style="html=1;" vertex="1" parent="nh1I7vMnc_5VSL2TyZD0-1">
          <mxGeometry x="460" y="130" width="90" height="40" as="geometry" />
        </mxCell>
        <mxCell id="7wD32De6sUAgyROnqUvv-1" value="2. &amp;lt;&amp;lt;create&amp;gt;&amp;gt; Aszteroida()" style="html=1;verticalAlign=bottom;endArrow=block;" edge="1" parent="nh1I7vMnc_5VSL2TyZD0-1">
          <mxGeometry x="-0.616" y="18" width="80" relative="1" as="geometry">
            <mxPoint x="330" y="170" as="sourcePoint" />
            <mxPoint x="400" y="150" as="targetPoint" />
            <mxPoint y="1" as="offset" />
          </mxGeometry>
        </mxCell>
        <mxCell id="7wD32De6sUAgyROnqUvv-2" value="" style="html=1;verticalAlign=bottom;endArrow=none;exitX=1;exitY=0.25;exitDx=0;exitDy=0;entryX=0;entryY=0.5;entryDx=0;entryDy=0;endFill=0;" edge="1" parent="nh1I7vMnc_5VSL2TyZD0-1" source="nh1I7vMnc_5VSL2TyZD0-6" target="7wD32De6sUAgyROnqUvv-0">
          <mxGeometry x="0.1692" y="-40" width="80" relative="1" as="geometry">
            <mxPoint x="190" y="230" as="sourcePoint" />
            <mxPoint x="450" y="100" as="targetPoint" />
            <mxPoint as="offset" />
          </mxGeometry>
        </mxCell>
        <mxCell id="iw1Pdsc0vNOmfEYXf4JM-0" value="tp2: Teleportkapu" style="html=1;" vertex="1" parent="nh1I7vMnc_5VSL2TyZD0-1">
          <mxGeometry x="370" y="420" width="110" height="40" as="geometry" />
        </mxCell>
        <mxCell id="iw1Pdsc0vNOmfEYXf4JM-1" value="5. &amp;lt;&amp;lt;create&amp;gt;&amp;gt; Teleportkapu()" style="html=1;verticalAlign=bottom;endArrow=none;exitX=1;exitY=1;exitDx=0;exitDy=0;entryX=0;entryY=0.5;entryDx=0;entryDy=0;endFill=0;" edge="1" parent="nh1I7vMnc_5VSL2TyZD0-1" target="iw1Pdsc0vNOmfEYXf4JM-0" source="nh1I7vMnc_5VSL2TyZD0-6">
          <mxGeometry x="0.451" y="27" width="80" relative="1" as="geometry">
            <mxPoint x="140" y="330" as="sourcePoint" />
            <mxPoint x="480" y="320" as="targetPoint" />
            <mxPoint as="offset" />
          </mxGeometry>
        </mxCell>
        <mxCell id="iw1Pdsc0vNOmfEYXf4JM-4" value="6. SetPar(tp2)" style="html=1;verticalAlign=bottom;endArrow=block;" edge="1" parent="nh1I7vMnc_5VSL2TyZD0-1">
          <mxGeometry x="0.0566" y="11" width="80" relative="1" as="geometry">
            <mxPoint x="440" y="310" as="sourcePoint" />
            <mxPoint x="510" y="330" as="targetPoint" />
            <mxPoint as="offset" />
          </mxGeometry>
        </mxCell>
        <mxCell id="iw1Pdsc0vNOmfEYXf4JM-5" value="" style="html=1;verticalAlign=bottom;endArrow=block;" edge="1" parent="nh1I7vMnc_5VSL2TyZD0-1">
          <mxGeometry x="0.0566" y="11" width="80" relative="1" as="geometry">
            <mxPoint x="310" y="280" as="sourcePoint" />
            <mxPoint x="380" y="300" as="targetPoint" />
            <mxPoint as="offset" />
          </mxGeometry>
        </mxCell>
        <mxCell id="iw1Pdsc0vNOmfEYXf4JM-6" value="" style="html=1;verticalAlign=bottom;endArrow=block;" edge="1" parent="nh1I7vMnc_5VSL2TyZD0-1">
          <mxGeometry x="0.0566" y="11" width="80" relative="1" as="geometry">
            <mxPoint x="280" y="340" as="sourcePoint" />
            <mxPoint x="350" y="400" as="targetPoint" />
            <mxPoint as="offset" />
            <Array as="points" />
          </mxGeometry>
        </mxCell>
        <mxCell id="iw1Pdsc0vNOmfEYXf4JM-7" value="" style="html=1;verticalAlign=bottom;endArrow=block;" edge="1" parent="nh1I7vMnc_5VSL2TyZD0-1">
          <mxGeometry x="0.0566" y="11" width="80" relative="1" as="geometry">
            <mxPoint x="300" y="220" as="sourcePoint" />
            <mxPoint x="400" y="220" as="targetPoint" />
            <mxPoint as="offset" />
          </mxGeometry>
        </mxCell>
      </root>
    </mxGraphModel>
  </diagram>
  <diagram id="jNYmWQsC2J_FQD3Y6qSj" name="telepes_tp">
    <mxGraphModel dx="1422" dy="762" grid="1" gridSize="10" guides="1" tooltips="1" connect="1" arrows="1" fold="1" page="1" pageScale="1" pageWidth="1654" pageHeight="1169" math="0" shadow="0">
      <root>
        <mxCell id="MbUJpDbh-RiQc9VeX4BV-0" />
        <mxCell id="MbUJpDbh-RiQc9VeX4BV-1" parent="MbUJpDbh-RiQc9VeX4BV-0" />
        <mxCell id="ZOiTXvp_CW5xcJXv1808-17" value="Telepes mozog teleportkapun keresztül" style="shape=umlFrame;whiteSpace=wrap;html=1;width=170;height=30;" vertex="1" parent="MbUJpDbh-RiQc9VeX4BV-1">
          <mxGeometry x="140" y="30" width="700" height="430" as="geometry" />
        </mxCell>
        <mxCell id="ZOiTXvp_CW5xcJXv1808-0" value="t: Telepes" style="shape=umlLifeline;perimeter=lifelinePerimeter;whiteSpace=wrap;html=1;container=1;collapsible=0;recursiveResize=0;outlineConnect=0;" vertex="1" parent="MbUJpDbh-RiQc9VeX4BV-1">
          <mxGeometry x="220" y="70" width="100" height="360" as="geometry" />
        </mxCell>
        <mxCell id="ZOiTXvp_CW5xcJXv1808-1" value="a: Aszteroida" style="shape=umlLifeline;perimeter=lifelinePerimeter;whiteSpace=wrap;html=1;container=1;collapsible=0;recursiveResize=0;outlineConnect=0;" vertex="1" parent="MbUJpDbh-RiQc9VeX4BV-1">
          <mxGeometry x="340" y="70" width="100" height="360" as="geometry" />
        </mxCell>
        <mxCell id="ZOiTXvp_CW5xcJXv1808-2" value="" style="html=1;points=[];perimeter=orthogonalPerimeter;" vertex="1" parent="ZOiTXvp_CW5xcJXv1808-1">
          <mxGeometry x="45" y="110" width="10" height="40" as="geometry" />
        </mxCell>
        <mxCell id="ZOiTXvp_CW5xcJXv1808-5" value="2. HajoElhagy (t)" style="html=1;verticalAlign=bottom;endArrow=block;entryX=0.733;entryY=0;entryDx=0;entryDy=0;entryPerimeter=0;" edge="1" parent="MbUJpDbh-RiQc9VeX4BV-1" source="ZOiTXvp_CW5xcJXv1808-0" target="ZOiTXvp_CW5xcJXv1808-2">
          <mxGeometry x="0.0473" relative="1" as="geometry">
            <mxPoint x="265" y="170" as="sourcePoint" />
            <mxPoint as="offset" />
          </mxGeometry>
        </mxCell>
        <mxCell id="ZOiTXvp_CW5xcJXv1808-6" value="" style="html=1;verticalAlign=bottom;endArrow=open;dashed=1;endSize=8;exitX=1.2;exitY=0.987;exitDx=0;exitDy=0;exitPerimeter=0;" edge="1" parent="MbUJpDbh-RiQc9VeX4BV-1" source="ZOiTXvp_CW5xcJXv1808-2" target="ZOiTXvp_CW5xcJXv1808-9">
          <mxGeometry relative="1" as="geometry">
            <mxPoint x="285" y="220" as="targetPoint" />
            <mxPoint x="442" y="212" as="sourcePoint" />
            <Array as="points">
              <mxPoint x="365" y="220" />
            </Array>
          </mxGeometry>
        </mxCell>
        <mxCell id="ZOiTXvp_CW5xcJXv1808-7" value="3. HajoErkezik (t)" style="html=1;verticalAlign=bottom;endArrow=block;exitX=1.2;exitY=0.419;exitDx=0;exitDy=0;exitPerimeter=0;" edge="1" parent="MbUJpDbh-RiQc9VeX4BV-1" source="ZOiTXvp_CW5xcJXv1808-9" target="TuO-1wDKFcuCRlks0gZO-2">
          <mxGeometry relative="1" as="geometry">
            <mxPoint x="805" y="353.84615384615415" as="sourcePoint" />
          </mxGeometry>
        </mxCell>
        <mxCell id="ZOiTXvp_CW5xcJXv1808-8" value="" style="html=1;points=[];perimeter=orthogonalPerimeter;" vertex="1" parent="MbUJpDbh-RiQc9VeX4BV-1">
          <mxGeometry x="265" y="290" width="10" height="30" as="geometry" />
        </mxCell>
        <mxCell id="ZOiTXvp_CW5xcJXv1808-9" value="" style="html=1;points=[];perimeter=orthogonalPerimeter;" vertex="1" parent="MbUJpDbh-RiQc9VeX4BV-1">
          <mxGeometry x="265" y="150" width="10" height="250" as="geometry" />
        </mxCell>
        <mxCell id="ZOiTXvp_CW5xcJXv1808-10" value="1. Mozog(tp)" style="html=1;verticalAlign=bottom;endArrow=block;entryX=0.067;entryY=0.008;entryDx=0;entryDy=0;entryPerimeter=0;" edge="1" parent="MbUJpDbh-RiQc9VeX4BV-1" target="ZOiTXvp_CW5xcJXv1808-9" source="ZOiTXvp_CW5xcJXv1808-16">
          <mxGeometry x="-0.0048" relative="1" as="geometry">
            <mxPoint x="130" y="152" as="sourcePoint" />
            <mxPoint as="offset" />
          </mxGeometry>
        </mxCell>
        <mxCell id="ZOiTXvp_CW5xcJXv1808-11" value="" style="html=1;verticalAlign=bottom;endArrow=open;dashed=1;endSize=8;exitX=0;exitY=0.996;exitDx=0;exitDy=0;exitPerimeter=0;" edge="1" parent="MbUJpDbh-RiQc9VeX4BV-1" source="ZOiTXvp_CW5xcJXv1808-9" target="ZOiTXvp_CW5xcJXv1808-16">
          <mxGeometry x="-0.1098" y="-55" relative="1" as="geometry">
            <mxPoint x="140" y="378" as="targetPoint" />
            <Array as="points" />
            <mxPoint as="offset" />
          </mxGeometry>
        </mxCell>
        <mxCell id="ZOiTXvp_CW5xcJXv1808-12" value="" style="html=1;verticalAlign=bottom;endArrow=open;dashed=1;endSize=8;exitX=0.2;exitY=1.008;exitDx=0;exitDy=0;exitPerimeter=0;" edge="1" parent="MbUJpDbh-RiQc9VeX4BV-1" source="TuO-1wDKFcuCRlks0gZO-3">
          <mxGeometry x="-0.0947" relative="1" as="geometry">
            <mxPoint x="277" y="381" as="targetPoint" />
            <mxPoint x="610" y="365" as="sourcePoint" />
            <mxPoint as="offset" />
          </mxGeometry>
        </mxCell>
        <mxCell id="ZOiTXvp_CW5xcJXv1808-16" value="Player" style="shape=umlLifeline;participant=umlActor;perimeter=lifelinePerimeter;whiteSpace=wrap;html=1;container=1;collapsible=0;recursiveResize=0;verticalAlign=top;spacingTop=36;outlineConnect=0;" vertex="1" parent="MbUJpDbh-RiQc9VeX4BV-1">
          <mxGeometry x="160" y="70" width="20" height="350" as="geometry" />
        </mxCell>
        <mxCell id="TuO-1wDKFcuCRlks0gZO-2" value="tp: Teleportkapu" style="shape=umlLifeline;perimeter=lifelinePerimeter;whiteSpace=wrap;html=1;container=1;collapsible=0;recursiveResize=0;outlineConnect=0;" vertex="1" parent="MbUJpDbh-RiQc9VeX4BV-1">
          <mxGeometry x="460" y="70" width="100" height="370" as="geometry" />
        </mxCell>
        <mxCell id="TuO-1wDKFcuCRlks0gZO-3" value="" style="html=1;points=[];perimeter=orthogonalPerimeter;" vertex="1" parent="TuO-1wDKFcuCRlks0gZO-2">
          <mxGeometry x="45" y="180" width="10" height="130" as="geometry" />
        </mxCell>
        <mxCell id="TuO-1wDKFcuCRlks0gZO-5" value="par: Teleportkapu" style="shape=umlLifeline;perimeter=lifelinePerimeter;whiteSpace=wrap;html=1;container=1;collapsible=0;recursiveResize=0;outlineConnect=0;" vertex="1" parent="MbUJpDbh-RiQc9VeX4BV-1">
          <mxGeometry x="580" y="70" width="100" height="360" as="geometry" />
        </mxCell>
        <mxCell id="TuO-1wDKFcuCRlks0gZO-6" value="" style="html=1;points=[];perimeter=orthogonalPerimeter;" vertex="1" parent="TuO-1wDKFcuCRlks0gZO-5">
          <mxGeometry x="45" y="200" width="10" height="100" as="geometry" />
        </mxCell>
        <mxCell id="TuO-1wDKFcuCRlks0gZO-7" value="a2: Aszteroida" style="shape=umlLifeline;perimeter=lifelinePerimeter;whiteSpace=wrap;html=1;container=1;collapsible=0;recursiveResize=0;outlineConnect=0;" vertex="1" parent="MbUJpDbh-RiQc9VeX4BV-1">
          <mxGeometry x="700" y="70" width="100" height="360" as="geometry" />
        </mxCell>
        <mxCell id="TuO-1wDKFcuCRlks0gZO-8" value="" style="html=1;points=[];perimeter=orthogonalPerimeter;" vertex="1" parent="TuO-1wDKFcuCRlks0gZO-7">
          <mxGeometry x="45" y="210" width="10" height="80" as="geometry" />
        </mxCell>
        <mxCell id="TuO-1wDKFcuCRlks0gZO-9" value="2 : HajoTeleportErkezik(t)" style="html=1;verticalAlign=bottom;endArrow=block;" edge="1" parent="MbUJpDbh-RiQc9VeX4BV-1" target="TuO-1wDKFcuCRlks0gZO-6">
          <mxGeometry width="80" relative="1" as="geometry">
            <mxPoint x="520" y="270" as="sourcePoint" />
            <mxPoint x="650" y="313" as="targetPoint" />
            <Array as="points">
              <mxPoint x="590" y="270" />
            </Array>
          </mxGeometry>
        </mxCell>
        <mxCell id="TuO-1wDKFcuCRlks0gZO-10" value="3 : HajoErkezik(t)" style="html=1;verticalAlign=bottom;endArrow=block;entryX=0.31;entryY=0.002;entryDx=0;entryDy=0;entryPerimeter=0;exitX=1.069;exitY=0.109;exitDx=0;exitDy=0;exitPerimeter=0;" edge="1" parent="MbUJpDbh-RiQc9VeX4BV-1" source="TuO-1wDKFcuCRlks0gZO-6" target="TuO-1wDKFcuCRlks0gZO-8">
          <mxGeometry width="80" relative="1" as="geometry">
            <mxPoint x="760" y="210" as="sourcePoint" />
            <mxPoint x="940" y="210" as="targetPoint" />
          </mxGeometry>
        </mxCell>
        <mxCell id="TuO-1wDKFcuCRlks0gZO-11" value="" style="html=1;verticalAlign=bottom;endArrow=open;dashed=1;endSize=8;exitX=1.1;exitY=0.967;exitDx=0;exitDy=0;exitPerimeter=0;" edge="1" parent="MbUJpDbh-RiQc9VeX4BV-1" source="TuO-1wDKFcuCRlks0gZO-16" target="TuO-1wDKFcuCRlks0gZO-8">
          <mxGeometry relative="1" as="geometry">
            <mxPoint x="825" y="320" as="sourcePoint" />
            <mxPoint x="745" y="320" as="targetPoint" />
            <Array as="points" />
          </mxGeometry>
        </mxCell>
        <mxCell id="TuO-1wDKFcuCRlks0gZO-12" value="" style="html=1;verticalAlign=bottom;endArrow=open;dashed=1;endSize=8;entryX=0.5;entryY=0.85;entryDx=0;entryDy=0;entryPerimeter=0;" edge="1" parent="MbUJpDbh-RiQc9VeX4BV-1" target="TuO-1wDKFcuCRlks0gZO-6">
          <mxGeometry relative="1" as="geometry">
            <mxPoint x="740" y="355" as="sourcePoint" />
            <mxPoint x="760" y="360" as="targetPoint" />
          </mxGeometry>
        </mxCell>
        <mxCell id="TuO-1wDKFcuCRlks0gZO-13" value="" style="html=1;verticalAlign=bottom;endArrow=open;dashed=1;endSize=8;exitX=-0.3;exitY=0.989;exitDx=0;exitDy=0;exitPerimeter=0;" edge="1" parent="MbUJpDbh-RiQc9VeX4BV-1" source="TuO-1wDKFcuCRlks0gZO-6" target="TuO-1wDKFcuCRlks0gZO-3">
          <mxGeometry relative="1" as="geometry">
            <mxPoint x="440" y="270" as="sourcePoint" />
            <mxPoint x="360" y="270" as="targetPoint" />
          </mxGeometry>
        </mxCell>
        <mxCell id="TuO-1wDKFcuCRlks0gZO-15" value="6 : MezoBeallit(a2)" style="html=1;verticalAlign=bottom;endArrow=block;entryX=0.6;entryY=0.133;entryDx=0;entryDy=0;entryPerimeter=0;" edge="1" parent="MbUJpDbh-RiQc9VeX4BV-1" source="TuO-1wDKFcuCRlks0gZO-8" target="TuO-1wDKFcuCRlks0gZO-16">
          <mxGeometry width="80" relative="1" as="geometry">
            <mxPoint x="1225" y="270" as="sourcePoint" />
            <mxPoint x="720" y="270" as="targetPoint" />
            <Array as="points" />
          </mxGeometry>
        </mxCell>
        <mxCell id="TuO-1wDKFcuCRlks0gZO-16" value="" style="html=1;points=[];perimeter=orthogonalPerimeter;" vertex="1" parent="MbUJpDbh-RiQc9VeX4BV-1">
          <mxGeometry x="275" y="305" width="10" height="30" as="geometry" />
        </mxCell>
      </root>
    </mxGraphModel>
  </diagram>
</mxfile>
